Coordinates
version=1
nRows=17
nColumns=36
inDegrees=yes

Units are S.I. units (second, meters, Newtons, ...)
If the header above contains a line with 'inDegrees', this indicates whether rotational values are in degrees (yes) or radians (no).

endheader
time	pelvis_tilt	pelvis_list	pelvis_rotation	pelvis_tx	pelvis_ty	pelvis_tz	hip_flexion_r	hip_adduction_r	hip_rotation_r	knee_angle_r	knee_angle_r_beta	ankle_angle_r	subtalar_angle_r	mtp_angle_r	hip_flexion_l	hip_adduction_l	hip_rotation_l	knee_angle_l	knee_angle_l_beta	ankle_angle_l	subtalar_angle_l	mtp_angle_l	lumbar_extension	lumbar_bending	lumbar_rotation	arm_flex_r	arm_add_r	arm_rot_r	elbow_flex_r	pro_sup_r	arm_flex_l	arm_add_l	arm_rot_l	elbow_flex_l	pro_sup_l
      5.26666670	    -10.28675725	     -1.09121962	      0.87923735	      0.38241175	      0.87571007	     -0.10224666	     18.28059887	     -0.78050676	      5.50379990	     12.83107470	      0.22394450	      5.21539250	    -23.73768604	     -7.49999987	     20.14924381	     -4.75098013	      1.33773538	     16.13537777	      0.28161547	      8.04897104	     -5.91946941	     -7.49999987	     -8.45015244	     -0.21375201	     -2.00344879	      3.43115326	    -12.61169143	     13.02789032	     28.95542722	     79.45564162	      1.62933952	    -11.56958189	      0.81395845	     31.79363949	     76.84386085
      5.28333330	     -9.63733929	     -1.07903607	      0.96985692	      0.38589061	      0.88151064	     -0.10092805	     16.59770667	     -0.79340155	      5.26106204	     11.30912164	      0.19738141	      4.90993697	    -23.17770623	     -7.49999987	     18.59589159	     -4.73851813	      1.19748809	     14.76805084	      0.25775111	      7.49246098	     -5.65119631	     -7.49999987	     -8.34711220	     -0.34677963	     -1.95180445	      3.18858862	    -12.52127992	     12.92012081	     28.83577950	     79.71305145	      1.49868212	    -11.67304227	      1.03881708	     31.86577000	     77.25712940
      5.30000000	     -9.14768189	     -1.02239435	      1.04861573	      0.38680359	      0.88362162	     -0.10352356	     15.29032951	     -0.93356755	      4.98449531	     10.06060835	      0.17559074	      4.78187977	    -22.37647172	     -7.49999987	     17.31382776	     -4.58369663	      1.19725294	     13.46845947	      0.23506896	      6.92600139	     -5.70267235	     -7.49999987	     -8.22175932	     -0.47281777	     -1.86312502	      3.03144366	    -12.46838314	     12.80949633	     28.70645240	     80.20020173	      1.44716478	    -11.66671385	      1.27032730	     31.82000928	     77.88826014
      5.31666670	     -8.81918894	     -0.94328076	      1.12416726	      0.38782707	      0.88445374	     -0.10309977	     14.22923815	     -1.04362385	      5.02153971	      8.93047534	      0.15586620	      4.35721759	    -22.29811852	     -7.49999987	     16.29246971	     -4.41130297	      1.23762669	     12.24253088	      0.21367247	      6.35172785	     -5.91095293	     -7.49999987	     -7.97115738	     -0.65040140	     -1.79107928	      2.93471134	    -12.32269743	     12.65833268	     28.59775649	     79.91822565	      1.37866332	    -11.58629900	      1.36721716	     31.84403566	     77.74500094
      5.33333330	     -8.30034530	     -0.85622954	      1.12835161	      0.39045255	      0.88430888	     -0.10375105	     13.04894830	     -1.21660339	      4.71178994	      7.95656308	      0.13886822	      4.35894053	    -21.29545003	     -7.49999987	     14.99211542	     -4.23689186	      1.41932516	     10.97302116	      0.19151535	      5.96715150	     -6.00935227	     -7.49999987	     -8.01632142	     -0.78529526	     -1.69291409	      2.81139700	    -12.30297445	     12.55363210	     28.49696153	     79.15215241	      1.32519484	    -11.55191694	      1.69170414	     31.90378294	     77.22140332
      5.35000000	     -8.25351408	     -0.86354150	      1.08190401	      0.38964165	      0.88190824	     -0.09831891	     12.57849074	     -1.10992752	      4.76099735	      7.28757234	      0.12719213	      4.32520906	    -21.00605792	     -7.49999987	     14.45325475	     -4.36214472	      1.43322013	     10.10189106	      0.17631126	      5.75339873	     -6.01517849	     -7.49999987	     -7.42400092	     -0.92910805	     -1.61338966	      2.66067627	    -12.19484889	     12.55644842	     28.46934791	     79.22969150	      1.19781788	    -11.63957213	      1.76881202	     31.92488070	     77.33953364
      5.36666670	     -7.67568666	     -0.80610524	      1.01764847	      0.39251655	      0.88692362	     -0.10219090	     11.47140250	     -1.19277348	      4.55547572	      6.55750234	      0.11445001	      4.30031276	    -20.14924831	     -7.49999987	     13.13331919	     -4.28905727	      1.71750540	      8.95835424	      0.15635278	      5.15385115	     -6.31107023	     -7.49999987	     -7.65075302	     -0.98613753	     -1.47937603	      2.75000091	    -12.13967536	     12.32744525	     28.24789797	     79.66117598	      1.32192219	    -11.67158184	      2.31693997	     31.78297232	     78.05660497
      5.38333330	     -7.37098921	     -0.79613854	      0.89999289	      0.39357331	      0.88632766	     -0.10230450	     10.82892818	     -1.22088243	      4.49798294	      6.10562639	      0.10656328	      4.21136770	    -19.92270159	     -7.49999987	     12.19528128	     -4.23597183	      1.83133564	      7.98967677	      0.13944617	      5.09081078	     -6.36818975	     -7.49999987	     -7.40174669	     -0.98111170	     -1.37072836	      2.73179640	    -12.08351220	     12.28648092	     28.00045833	     79.78370352	      1.28238824	    -11.58166512	      2.47895038	     31.55455916	     78.24931285
      5.40000000	     -6.97603615	     -0.76529270	      0.78872951	      0.39407131	      0.88944584	     -0.10338719	     10.05518826	     -1.28850136	      4.43762644	      5.57617780	      0.09732266	      3.92202890	    -19.59164374	     -7.49999987	     11.18061210	     -4.12070592	      2.00917869	      6.98719744	      0.12194960	      4.81324558	     -6.52603508	     -7.49999987	     -7.38816794	     -0.95418903	     -1.24834191	      2.65934947	    -12.02576347	     12.03241997	     28.08624003	     77.71903537	      1.18761406	    -11.43555511	      2.67261101	     31.68554140	     76.36197968
      5.41666670	     -6.67986656	     -0.76624434	      0.74656607	      0.39528705	      0.89401811	     -0.10320745	      9.26904909	     -1.37120649	      4.09421133	      4.79444986	      0.08367894	      3.94954298	    -18.54095032	     -7.49999987	     10.37902442	     -4.02505675	      2.24494613	      6.23363462	      0.10879745	      4.51435947	     -6.50690582	     -7.49999987	     -7.16189032	     -0.86233812	     -1.02179094	      2.52029731	    -11.98175597	     11.26026563	     27.80486840	     81.39491588	      1.42076457	    -11.35081166	      3.19026529	     31.11230075	     79.91720360
      5.43333330	     -6.26421052	     -0.77719407	      0.65290172	      0.39646483	      0.89320155	     -0.10349584	      8.38410255	     -1.38987966	      3.90206960	      4.06943700	      0.07102507	      3.93668957	    -17.60092686	     -7.49999987	      9.41130111	     -4.00108975	      2.40262089	      5.39550918	      0.09416940	      4.29615802	     -6.53755961	     -7.49999987	     -7.25317191	     -0.75540232	     -0.93801213	      2.50256577	    -11.93113837	     11.19012014	     27.83592850	     78.42726317	      1.34281900	    -11.16108656	      3.26029648	     31.18198132	     77.06082033
      5.45000000	     -5.92159271	     -0.80292377	      0.46497624	      0.39743179	      0.89533020	     -0.10272718	      7.63910409	     -1.35643706	      3.89423168	      3.39270232	      0.05921383	      3.51948470	    -17.25974808	     -7.49999987	      8.46165850	     -4.00941357	      2.62843499	      4.46914612	      0.07800131	      3.95525730	     -6.75591612	     -7.49999987	     -7.24694067	     -0.71289589	     -0.88474824	      2.52395350	    -11.86610531	     11.31370541	     27.88132844	     76.85032465	      1.23424928	    -11.06830336	      3.52074689	     31.18318002	     75.55919667
      5.46666670	     -5.96283158	     -0.86468229	      0.42115359	      0.39802025	      0.90149096	     -0.09934181	      7.22732073	     -1.22860295	      4.13257020	      2.57268934	      0.04490190	      3.27329884	    -16.83459284	     -7.49999987	      8.00626638	     -4.15230221	      2.92118154	      3.61479226	      0.06309003	      3.75777677	     -6.56742148	     -7.49999987	     -6.63846478	     -0.70650139	     -0.81630714	      2.36133572	    -11.69473002	     11.45207634	     27.72166821	     76.99115600	      1.06846163	    -11.00118435	      3.66189979	     31.03581861	     75.69218430
      5.48333330	     -5.34983862	     -0.96454687	      0.41145930	      0.39777631	      0.89548546	     -0.10023184	      6.21140706	     -1.10842296	      3.82497328	      1.93155834	      0.03371205	      3.37094983	    -15.98182986	     -7.49999987	      6.91654856	     -4.28023051	      3.09308934	      2.83813105	      0.04953473	      3.56512797	     -6.65101910	     -7.49999987	     -6.99307873	     -0.62953009	     -0.73693034	      2.69970992	    -11.71271701	     12.93771641	     27.14866249	     76.61153400	      1.41487129	    -11.14147226	      5.32706003	     30.47930850	     75.36508469
      5.50000000	     -5.01028356	     -0.98761076	      0.33266404	      0.39901800	      0.89621626	     -0.10321636	      5.58581613	     -1.10929890	      3.68818535	      1.53728987	      0.02683077	      3.32483942	    -15.47466417	     -7.49999987	      6.28965749	     -4.28471756	      3.01711839	      2.37909230	      0.04152299	      3.40751951	     -6.55812201	     -7.49999987	     -6.97162247	     -0.60477429	     -0.56632104	      2.55427651	    -11.47436820	     11.22297675	     26.94135371	     80.99289930	      1.47709991	    -10.77340664	      3.96464231	     30.37061477	     79.36072633
      5.51666670	     -4.66326744	     -1.01368259	      0.28227343	      0.40112560	      0.89745855	     -0.10341287	      4.95262297	     -1.15214784	      3.32105930	      1.22562647	      0.02139122	      3.32890044	    -14.88704725	     -7.49999987	      5.61288259	     -4.27507966	      3.14814001	      1.92670758	      0.03362739	      3.35078331	     -6.56937939	     -7.49999987	     -6.90513486	     -0.50786614	     -0.58832615	      2.57092937	    -11.44312575	     11.69650292	     26.91865176	     77.48943022	      1.44582500	    -10.61968872	      4.67378527	     30.16116494	     76.10834258
      5.53333330	     -4.45432221	     -1.06617584	      0.23292943	      0.39960536	      0.89573987	     -0.10146982	      4.56709465	     -1.11260946	      3.22293727	      0.99128204	      0.01730114	      3.54385468	    -14.52114694	     -7.49999987	      5.17669702	     -4.34766985	      3.24451134	      1.56343025	      0.02728701	      3.34593336	     -6.42703244	     -7.49999987	     -6.68384596	     -0.45330202	     -0.42408946	      2.63552618	    -11.39746913	     12.39323953	     26.50449521	     76.25277968	      1.72275393	    -10.61426967	      5.53303992	     29.71206667	     74.81870065
